<?xml version="1.0" standalone="yes"?>
<svg width="300" height="60"  xmlns="http://www.w3.org/2000/svg">

<path style="fill:#ffffff; stroke:none;" d="M0 0L0 600L800 600L800 0L68 0C71.2568 13.6793 69 29.9653 69 44C69 47.8539 70.4373 55.4664 66.6821 57.9722C60.5605 62.0571 44.2575 59 37 59C31.2325 59 15.9011 61.6943 11.6034 57.3966C8.59286 54.386 10 46.8801 10 43C10 29.2709 7.81374 13.3831 11 0L0 0z"/>
<path style="fill:#f16a2b; stroke:none;" d="M11 0L11 42C11 45.8711 9.45549 54.0784 12.0278 57.2577C15.4275 61.4597 30.027 59 35 59C42.6757 59 60.2252 62.2809 66.6821 57.9722C70.1181 55.6794 69 49.5201 69 46L69 14C69 10.5825 70.2856 3.47754 67.2577 1.02777C64.0785 -1.54449 55.8711 0 52 0L11 0z"/>
<path style="fill:#d29f86; stroke:none;" d="M10 1L10 58L11 58L11 19L10 1M68 1L69 2L68 1M15 5L15 54L16 54L17 5L15 5z"/>
<path style="fill:#ffffff; stroke:none;" d="M16 54L49 54L61.3966 52.9722L63 41L63 6L29 5L17.0278 6.60339L16 20L16 54z"/>
<path style="fill:#d29f86; stroke:none;" d="M58 5L59 6L58 5M60 5L60 6L63 6L62 54L64 41L64 5L60 5M90 5L90 6L93 6L90 5M207 5L207 6L211 6L207 5M84 6L85 7L84 6z"/>
<path style="fill:#646464; stroke:none;" d="M85 6L86 7L85 6z"/>
<path style="fill:#050505; stroke:none;" d="M73 47C83.8798 52.7233 117.678 57.871 108.106 34.0401C104.511 25.089 93.3749 27.641 87.2724 22.2971C83.9086 19.3514 86.0674 15.595 90.0162 15.0247C94.5579 14.3687 98.9835 17.3304 103 19C113.04 4.3017 84.6104 2.76709 77.4336 12.0439C68.8168 23.1822 80.6756 31.0108 90 34.0278C92.8407 34.9469 99.5445 36.6909 98.3873 40.9344C97.192 45.3181 91.3435 45.0319 88 44.01C80.8906 41.8373 77.2568 38.8966 73 47z"/>
<path style="fill:#646464; stroke:none;" d="M96.6667 6.33331L97.3333 6.66669L96.6667 6.33331z"/>
<path style="fill:#d29f86; stroke:none;" d="M98 6L99 7L98 6z"/>
<path style="fill:#646464; stroke:none;" d="M134 6L135 7L134 6z"/>
<path style="fill:#050505; stroke:none;" d="M115 53C126.254 52.9987 122.741 47.9619 130.394 43.0278C139.958 36.8611 150.504 43.8785 153 53L163 53C160.795 40.1961 152.867 26.925 147.719 15C145.583 10.0516 143.032 3.59497 136.225 6.60339C132.244 8.3623 130.727 15.3258 129.15 19C124.342 30.2056 118.928 41.4595 115 53z"/>
<path style="fill:#d29f86; stroke:none;" d="M144 6L145 7L144 6M171 6L171 51L172 51C172 38.2581 175.91 17.7012 171 6z"/>
<path style="fill:#646464; stroke:none;" d="M172 6L172 7L181 7L181 51L182 51L182 6L172 6z"/>
<path style="fill:#d29f86; stroke:none;" d="M202 6L203 7L202 6z"/>
<path style="fill:#646464; stroke:none;" d="M203 6L204 7L203 6z"/>
<path style="fill:#050505; stroke:none;" d="M195 40L191 47C201.498 53.3602 234.116 57.635 226.297 35.0146C222.688 24.5737 210.408 28.3629 204.377 21.5818C201.694 18.5657 204.453 15.6021 207.719 15.0131C212.294 14.1882 216.966 17.3231 221 19L225 11C213.859 4.52789 183.479 5.2486 194.179 25.9846C198.639 34.6283 209.904 31.196 215.377 37.6481C221.077 44.3669 207.517 44.929 204 43.4715C200.891 42.183 198.333 40.6424 195 40z"/>
<path style="fill:#646464; stroke:none;" d="M214.667 6.33331L215.333 6.66669L214.667 6.33331z"/>
<path style="fill:#d29f86; stroke:none;" d="M216 6L217 7L216 6z"/>
<path style="fill:#646464; stroke:none;" d="M236 6L236 7L246 7L236 6z"/>
<path style="fill:#d29f86; stroke:none;" d="M246 6L246 24L247 24L246 6M265 6L266 7L265 6z"/>
<path style="fill:#646464; stroke:none;" d="M265 25L266 25L266 7L275 7L275 53C278.808 43.9261 276 28.8472 276 19C276 15.8785 277.046 10.2213 274.972 7.60339C273.006 5.12128 267.033 5.41241 265.603 8.31787C263.507 12.5775 265 20.3153 265 25z"/>
<path style="fill:#d29f86; stroke:none;" d="M275 6L276 7L275 6z"/>
<path style="fill:#646464; stroke:none;" d="M82 7L83 8L82 7M100 7L101 8L100 7z"/>
<path style="fill:#d29f86; stroke:none;" d="M101 7L102 8L101 7z"/>
<path style="fill:#646464; stroke:none;" d="M144 7L145 8L144 7z"/>
<path style="fill:#050505; stroke:none;" d="M172 7L172 53L182 52L181 7L172 7z"/>
<path style="fill:#646464; stroke:none;" d="M200 7L201 8L200 7M218 7L219 8L218 7z"/>
<path style="fill:#050505; stroke:none;" d="M236 7L236 53L246 53L246 34L266 34L266 53L275 53L275 7L266 7L266 25L246 25L246 7L236 7z"/>
<path style="fill:#646464; stroke:none;" d="M80 8L81 9L80 8M102 8L103 9L102 8z"/>
<path style="fill:#d29f86; stroke:none;" d="M103 8L104 9L103 8M133 8L134 9L133 8z"/>
<path style="fill:#646464; stroke:none;" d="M198 8L199 9L198 8M220 8L221 9L220 8z"/>
<path style="fill:#d29f86; stroke:none;" d="M221 8L222 9L221 8z"/>
<path style="fill:#646464; stroke:none;" d="M79 9L80 10L79 9M145 9L146 10L145 9M222 9L223 10L222 9M78 10L79 11L78 10M106 10L107 11L106 10z"/>
<path style="fill:#d29f86; stroke:none;" d="M132 10L133 11L132 10M224 10L225 11L224 10z"/>
<path style="fill:#646464; stroke:none;" d="M77 11L78 12L77 11M107.333 11.6667L107.667 12.3333L107.333 11.6667M132 11L133 12L132 11z"/>
<path style="fill:#d29f86; stroke:none;" d="M146 11L147 12L146 11z"/>
<path style="fill:#646464; stroke:none;" d="M225 11L226 12L225 11z"/>
<path style="fill:#d29f86; stroke:none;" d="M76 12L77 13L76 12M131 12L132 13L131 12z"/>
<path style="fill:#646464; stroke:none;" d="M146 12L147 13L146 12M194 12L195 13L194 12z"/>
<path style="fill:#d29f86; stroke:none;" d="M225 12L226 13L225 12z"/>
<path style="fill:#646464; stroke:none;" d="M131 13L132 14L131 13z"/>
<path style="fill:#d29f86; stroke:none;" d="M147 13L148 14L147 13M193 13L194 14L193 13z"/>
<path style="fill:#646464; stroke:none;" d="M224 13L225 14L224 13M75 14L76 15L75 14M90.6667 14.3333L91.3333 14.6667L90.6667 14.3333z"/>
<path style="fill:#d29f86; stroke:none;" d="M106 14L107 15L106 14z"/>
<path style="fill:#646464; stroke:none;" d="M147 14L148 15L147 14M193 14L194 15L193 14M208 14L209 15L208 14M86 15L87 16L86 15z"/>
<path style="fill:#d29f86; stroke:none;" d="M87 15L88 16L87 15M94 15L95 16L94 15z"/>
<path style="fill:#646464; stroke:none;" d="M95 15L96 16L95 15M105 15L106 16L105 15z"/>
<path style="fill:#d29f86; stroke:none;" d="M130 15L131 16L130 15z"/>
<path style="fill:#646464; stroke:none;" d="M204 15L205 16L204 15z"/>
<path style="fill:#d29f86; stroke:none;" d="M212 15L213 16L212 15z"/>
<path style="fill:#646464; stroke:none;" d="M213 15L214 16L213 15z"/>
<path style="fill:#d29f86; stroke:none;" d="M223 15L224 16L223 15z"/>
<path style="fill:#646464; stroke:none;" d="M85 16L86 17L85 16z"/>
<path style="fill:#d29f86; stroke:none;" d="M97 16L98 17L97 16z"/>
<path style="fill:#646464; stroke:none;" d="M104 16L105 17L104 16M148 16L149 17L148 16z"/>
<path style="fill:#d29f86; stroke:none;" d="M192 16L193 17L192 16M203 16L204 17L203 16z"/>
<path style="fill:#646464; stroke:none;" d="M215 16L216 17L215 16M222 16L223 17L222 16z"/>
<path style="fill:#d29f86; stroke:none;" d="M24 17L24 22L25 22L27 18L24 17M74.3333 17.6667L74.6667 18.3333L74.3333 17.6667M99 17L100 18L99 17M104 17L105 18L104 17M129 17L130 18L129 17z"/>
<path style="fill:#646464; stroke:none;" d="M192 17L192 23L193 23L192 17M202 17L203 18L202 17z"/>
<path style="fill:#d29f86; stroke:none;" d="M217 17L218 18L217 17z"/>
<path style="fill:#646464; stroke:none;" d="M221 17L222 18L221 17M84.3333 18.6667L84.6667 19.3333L84.3333 18.6667M101 18L102 19L101 18z"/>
<path style="fill:#d29f86; stroke:none;" d="M103 18L104 19L103 18z"/>
<path style="fill:#646464; stroke:none;" d="M129 18L130 19L129 18z"/>
<path style="fill:#d29f86; stroke:none;" d="M149 18L150 19L149 18M202 18L203 19L202 18z"/>
<path style="fill:#646464; stroke:none;" d="M219 18L220 19L219 18z"/>
<path style="fill:#d29f86; stroke:none;" d="M221 18L222 19L221 18z"/>
<path style="fill:#f16a2b; stroke:none;" d="M25 19C25.7851 23.8698 29.0704 26.3035 33 29L33 30C28.5446 32.9576 25.4211 35.4604 25 41L39 30L25 19z"/>
<path style="fill:#d29f86; stroke:none;" d="M28 19L29 20L28 19z"/>
<path style="fill:#646464; stroke:none;" d="M74.3333 19.6667L74.6667 20.3333L74.3333 19.6667z"/>
<path style="fill:#d29f86; stroke:none;" d="M128 19L129 20L128 19z"/>
<path style="fill:#646464; stroke:none;" d="M138 19L139 20L138 19z"/>
<path style="fill:#d29f86; stroke:none;" d="M139 19L138 21L139 19z"/>
<path style="fill:#646464; stroke:none;" d="M149 19L150 20L149 19M202.333 19.6667L202.667 20.3333L202.333 19.6667z"/>
<path style="fill:#d29f86; stroke:none;" d="M29 20L30 21L29 20z"/>
<path style="fill:#646464; stroke:none;" d="M128 20L129 21L128 20z"/>
<path style="fill:#ffffff; stroke:none;" d="M139 20L134 33L145 33L139 20z"/>
<path style="fill:#d29f86; stroke:none;" d="M150 20L151 21L150 20M30 21L31 22L30 21M74.3333 21.6667L74.6667 22.3333L74.3333 21.6667z"/>
<path style="fill:#646464; stroke:none;" d="M85 21L86 22L85 21M140 21L141 22L140 21M150 21L151 22L150 21z"/>
<path style="fill:#d29f86; stroke:none;" d="M203 21L204 22L203 21M31 22L32 23L31 22z"/>
<path style="fill:#646464; stroke:none;" d="M86 22L87 23L86 22z"/>
<path style="fill:#d29f86; stroke:none;" d="M87 22L88 23L87 22M127 22L128 23L127 22z"/>
<path style="fill:#646464; stroke:none;" d="M137 22L138 23L137 22M204 22L205 23L204 22z"/>
<path style="fill:#d29f86; stroke:none;" d="M25 23L26 24L25 23M32 23L33 24L32 23z"/>
<path style="fill:#646464; stroke:none;" d="M88 23L89 24L88 23z"/>
<path style="fill:#d29f86; stroke:none;" d="M89 23L90 24L89 23z"/>
<path style="fill:#646464; stroke:none;" d="M141 23L142 24L141 23z"/>
<path style="fill:#d29f86; stroke:none;" d="M151 23L152 24L151 23M192 23L193 24L192 23z"/>
<path style="fill:#646464; stroke:none;" d="M206 23L207 24L206 23z"/>
<path style="fill:#d29f86; stroke:none;" d="M207 23L208 24L207 23M27 24L28 25L27 24M34 24L35 25L34 24z"/>
<path style="fill:#646464; stroke:none;" d="M91.6667 24.3333L92.3333 24.6667L91.6667 24.3333z"/>
<path style="fill:#d29f86; stroke:none;" d="M93 24L94 25L93 24M126 24L127 25L126 24z"/>
<path style="fill:#646464; stroke:none;" d="M136 24L137 25L136 24z"/>
<path style="fill:#d29f86; stroke:none;" d="M141 24L142 25L141 24z"/>
<path style="fill:#646464; stroke:none;" d="M209 24L210 25L209 24z"/>
<path style="fill:#d29f86; stroke:none;" d="M210 24L211 25L210 24z"/>
<path style="fill:#646464; stroke:none;" d="M246 24L247 25L246 24z"/>
<path style="fill:#d29f86; stroke:none;" d="M264 24L265 25L264 24M28 25L29 26L28 25M35 25L36 26L35 25M75 25L76 26L75 25z"/>
<path style="fill:#646464; stroke:none;" d="M95 25L96 26L95 25z"/>
<path style="fill:#d29f86; stroke:none;" d="M96 25L97 26L96 25z"/>
<path style="fill:#646464; stroke:none;" d="M126 25L127 26L126 25z"/>
<path style="fill:#d29f86; stroke:none;" d="M136 25L137 26L136 25M152 25L153 26L152 25z"/>
<path style="fill:#646464; stroke:none;" d="M193 25L194 26L193 25M213 25L214 26L213 25z"/>
<path style="fill:#d29f86; stroke:none;" d="M214 25L215 26L214 25M29 26L30 27L29 26M36 26L37 27L36 26z"/>
<path style="fill:#646464; stroke:none;" d="M98 26L99 27L98 26z"/>
<path style="fill:#d29f86; stroke:none;" d="M99 26L100 27L99 26z"/>
<path style="fill:#646464; stroke:none;" d="M142 26L143 27L142 26M152 26L153 27L152 26M216 26L217 27L216 26z"/>
<path style="fill:#d29f86; stroke:none;" d="M217 26L218 27L217 26M30 27L31 28L30 27M37 27L38 28L37 27M76 27L77 28L76 27z"/>
<path style="fill:#646464; stroke:none;" d="M101 27L102 28L101 27M125 27L126 28L125 27z"/>
<path style="fill:#d29f86; stroke:none;" d="M135 27L136 28L135 27z"/>
<path style="fill:#646464; stroke:none;" d="M194 27L195 28L194 27M219 27L220 28L219 27z"/>
<path style="fill:#d29f86; stroke:none;" d="M31 28L32 29L31 28M38 28L39 29L38 28M77 28L78 29L77 28z"/>
<path style="fill:#646464; stroke:none;" d="M103 28L104 29L103 28M143 28L144 29L143 28M153 28L154 29L153 28M195 28L196 29L195 28z"/>
<path style="fill:#d29f86; stroke:none;" d="M221 28L222 29L221 28M32 29L33 30L32 29M39 29L40 30L39 29M78 29L79 30L78 29z"/>
<path style="fill:#646464; stroke:none;" d="M104 29L105 30L104 29z"/>
<path style="fill:#d29f86; stroke:none;" d="M124 29L125 30L124 29z"/>
<path style="fill:#646464; stroke:none;" d="M134 29L135 30L134 29z"/>
<path style="fill:#d29f86; stroke:none;" d="M143 29L144 30L143 29z"/>
<path style="fill:#646464; stroke:none;" d="M196 29L197 30L196 29M222 29L223 30L222 29z"/>
<path style="fill:#d29f86; stroke:none;" d="M31 30L32 31L31 30M38 30L39 31L38 30z"/>
<path style="fill:#646464; stroke:none;" d="M80 30L81 31L80 30z"/>
<path style="fill:#d29f86; stroke:none;" d="M106 30L107 31L106 30z"/>
<path style="fill:#646464; stroke:none;" d="M124 30L125 31L124 30z"/>
<path style="fill:#d29f86; stroke:none;" d="M134 30L135 31L134 30z"/>
<path style="fill:#646464; stroke:none;" d="M144 30L145 31L144 30z"/>
<path style="fill:#d29f86; stroke:none;" d="M154 30L155 31L154 30M197 30L198 31L197 30M30 31L31 32L30 31M37 31L38 32L37 31M81 31L82 32L81 31z"/>
<path style="fill:#646464; stroke:none;" d="M82 31L83 32L82 31z"/>
<path style="fill:#d29f86; stroke:none;" d="M107 31L108 32L107 31M123 31L124 32L123 31z"/>
<path style="fill:#646464; stroke:none;" d="M133 31L134 32L133 31z"/>
<path style="fill:#d29f86; stroke:none;" d="M144 31L145 32L144 31M199 31L200 32L199 31z"/>
<path style="fill:#646464; stroke:none;" d="M224 31L225 32L224 31z"/>
<path style="fill:#d29f86; stroke:none;" d="M29 32L30 33L29 32M36 32L37 33L36 32M83 32L84 33L83 32z"/>
<path style="fill:#646464; stroke:none;" d="M84 32L85 33L84 32M123 32L124 33L123 32z"/>
<path style="fill:#d29f86; stroke:none;" d="M133 32L134 33L133 32M155 32L156 33L155 32M201 32L202 33L201 32z"/>
<path style="fill:#646464; stroke:none;" d="M202 32L203 33L202 32M225 32L226 33L225 32z"/>
<path style="fill:#d29f86; stroke:none;" d="M28 33L29 34L28 33M35 33L36 34L35 33M86.6667 33.3333L87.3333 33.6667L86.6667 33.3333z"/>
<path style="fill:#646464; stroke:none;" d="M88 33L89 34L88 33z"/>
<path style="fill:#d29f86; stroke:none;" d="M108 33L109 34L108 33z"/>
<path style="fill:#646464; stroke:none;" d="M133 33L133 34L145 34L133 33M155 33L156 34L155 33z"/>
<path style="fill:#d29f86; stroke:none;" d="M204 33L205 34L204 33z"/>
<path style="fill:#646464; stroke:none;" d="M205 33L206 34L205 33z"/>
<path style="fill:#d29f86; stroke:none;" d="M226 33L227 34L226 33M33.6667 34.3333L34.3333 34.6667L33.6667 34.3333M90 34L91 35L90 34z"/>
<path style="fill:#646464; stroke:none;" d="M91 34L92 35L91 34M108 34L109 35L108 34M122 34L123 35L122 34z"/>
<path style="fill:#d29f86; stroke:none;" d="M208 34L209 35L208 34z"/>
<path style="fill:#646464; stroke:none;" d="M209 34L210 35L209 34M226 34L227 35L226 34M246 34L247 35L246 34z"/>
<path style="fill:#d29f86; stroke:none;" d="M247 34L247 35L265 35L247 34z"/>
<path style="fill:#646464; stroke:none;" d="M265 34L265 53L266 53L265 34z"/>
<path style="fill:#d29f86; stroke:none;" d="M25 35L26 36L25 35M32 35L33 36L32 35z"/>
<path style="fill:#646464; stroke:none;" d="M94 35L95 36L94 35M156 35L157 36L156 35z"/>
<path style="fill:#d29f86; stroke:none;" d="M211 35L212 36L211 35z"/>
<path style="fill:#646464; stroke:none;" d="M212 35L213 36L212 35z"/>
<path style="fill:#d29f86; stroke:none;" d="M246 35L246 53L247 53L246 35M24 36L26 42L24 36M31 36L32 37L31 36M96 36L97 37L96 36M109.333 36.6667L109.667 37.3333L109.333 36.6667M121 36L122 37L121 36M214 36L215 37L214 36M30 37L31 38L30 37M40 37L40 38L54 38L54 42L55 42L55 37L40 37z"/>
<path style="fill:#646464; stroke:none;" d="M98 37L99 38L98 37M121 37L122 38L121 37z"/>
<path style="fill:#d29f86; stroke:none;" d="M157 37L158 38L157 37z"/>
<path style="fill:#646464; stroke:none;" d="M216 37L217 38L216 37z"/>
<path style="fill:#d29f86; stroke:none;" d="M227 37L227 41L228 41L227 37M29 38L30 39L29 38z"/>
<path style="fill:#f16a2b; stroke:none;" d="M40 38L40 42L54 42L54 38L40 38z"/>
<path style="fill:#646464; stroke:none;" d="M109 38L109 41L110 41L109 38z"/>
<path style="fill:#d29f86; stroke:none;" d="M120 38L121 39L120 38z"/>
<path style="fill:#646464; stroke:none;" d="M157 38L158 39L157 38z"/>
<path style="fill:#d29f86; stroke:none;" d="M216 38L217 39L216 38M28 39L29 40L28 39z"/>
<path style="fill:#646464; stroke:none;" d="M78 39L79 40L78 39z"/>
<path style="fill:#d29f86; stroke:none;" d="M79 39L80 40L79 39z"/>
<path style="fill:#646464; stroke:none;" d="M99.3333 39.6667L99.6667 40.3333L99.3333 39.6667M120 39L121 40L120 39z"/>
<path style="fill:#d29f86; stroke:none;" d="M158 39L159 40L158 39z"/>
<path style="fill:#646464; stroke:none;" d="M196 39L197 40L196 39z"/>
<path style="fill:#d29f86; stroke:none;" d="M197 39L198 40L197 39M26 40L27 41L26 40z"/>
<path style="fill:#646464; stroke:none;" d="M77 40L78 41L77 40M80 40L81 41L80 40M158 40L159 41L158 40M198 40L199 41L198 40M76 41L77 42L76 41z"/>
<path style="fill:#d29f86; stroke:none;" d="M82 41L83 42L82 41M109.333 41.6667L109.667 42.3333L109.333 41.6667z"/>
<path style="fill:#646464; stroke:none;" d="M119 41L120 42L119 41M194 41L195 42L194 41z"/>
<path style="fill:#d29f86; stroke:none;" d="M200 41L201 42L200 41M75 42L76 43L75 42M84 42L85 43L84 42M98 42L99 43L98 42z"/>
<path style="fill:#646464; stroke:none;" d="M129 42L129 43L149 43L129 42M159 42L160 43L159 42M193 42L194 43L193 42M201 42L202 43L201 42M216 42L217 43L216 42z"/>
<path style="fill:#d29f86; stroke:none;" d="M74 43L75 44L74 43z"/>
<path style="fill:#646464; stroke:none;" d="M85 43L86 44L85 43z"/>
<path style="fill:#d29f86; stroke:none;" d="M86 43L87 44L86 43z"/>
<path style="fill:#646464; stroke:none;" d="M97 43L98 44L97 43z"/>
<path style="fill:#d29f86; stroke:none;" d="M118 43L119 44L118 43z"/>
<path style="fill:#646464; stroke:none;" d="M149 43L150 44L149 43z"/>
<path style="fill:#d29f86; stroke:none;" d="M192 43L193 44L192 43z"/>
<path style="fill:#646464; stroke:none;" d="M203 43L204 44L203 43z"/>
<path style="fill:#d29f86; stroke:none;" d="M204 43L205 44L204 43z"/>
<path style="fill:#646464; stroke:none;" d="M215 43L216 44L215 43M226 43L227 44L226 43M89.6667 44.3333L90.3333 44.6667L89.6667 44.3333z"/>
<path style="fill:#d29f86; stroke:none;" d="M91 44L91 45L94 45L91 44z"/>
<path style="fill:#646464; stroke:none;" d="M94.6667 44.3333L95.3333 44.6667L94.6667 44.3333M108 44L109 45L108 44M118 44L119 45L118 44M128 44L129 45L128 44z"/>
<path style="fill:#d29f86; stroke:none;" d="M149 44L150 45L149 44M160 44L161 45L160 44M191 44L192 45L191 44z"/>
<path style="fill:#646464; stroke:none;" d="M206 44L206 45L209 45L206 44z"/>
<path style="fill:#d29f86; stroke:none;" d="M209 44L209 45L212 45L209 44z"/>
<path style="fill:#646464; stroke:none;" d="M212.667 44.3333L213.333 44.6667L212.667 44.3333z"/>
<path style="fill:#d29f86; stroke:none;" d="M226 44L227 45L226 44z"/>
<path style="fill:#646464; stroke:none;" d="M73 45L74 46L73 45z"/>
<path style="fill:#d29f86; stroke:none;" d="M108 45L109 46L108 45M117 45L118 46L117 45z"/>
<path style="fill:#646464; stroke:none;" d="M150 45L151 46L150 45z"/>
<path style="fill:#d29f86; stroke:none;" d="M190.333 45.6667L190.667 46.3333L190.333 45.6667z"/>
<path style="fill:#646464; stroke:none;" d="M107 46L108 47L107 46M117 46L118 47L117 46M127 46L128 47L127 46z"/>
<path style="fill:#d29f86; stroke:none;" d="M150 46L151 47L150 46M161 46L162 47L161 46M225 46L226 47L225 46z"/>
<path style="fill:#646464; stroke:none;" d="M74 47L75 48L74 47z"/>
<path style="fill:#d29f86; stroke:none;" d="M127 47L128 48L127 47z"/>
<path style="fill:#646464; stroke:none;" d="M161 47L162 48L161 47z"/>
<path style="fill:#d29f86; stroke:none;" d="M191 47L192 48L191 47z"/>
<path style="fill:#646464; stroke:none;" d="M224 47L225 48L224 47M75 48L76 49L75 48z"/>
<path style="fill:#d29f86; stroke:none;" d="M106 48L107 49L106 48z"/>
<path style="fill:#646464; stroke:none;" d="M116 48L117 49L116 48M151 48L152 49L151 48M193 48L194 49L193 48z"/>
<path style="fill:#d29f86; stroke:none;" d="M76 49L77 50L76 49z"/>
<path style="fill:#646464; stroke:none;" d="M77 49L78 50L77 49z"/>
<path style="fill:#d29f86; stroke:none;" d="M105 49L106 50L105 49z"/>
<path style="fill:#646464; stroke:none;" d="M126 49L127 50L126 49z"/>
<path style="fill:#d29f86; stroke:none;" d="M151 49L152 50L151 49z"/>
<path style="fill:#646464; stroke:none;" d="M162 49L163 50L162 49z"/>
<path style="fill:#d29f86; stroke:none;" d="M194 49L195 50L194 49z"/>
<path style="fill:#646464; stroke:none;" d="M195 49L196 50L195 49M222 49L223 50L222 49z"/>
<path style="fill:#d29f86; stroke:none;" d="M78 50L79 51L78 50z"/>
<path style="fill:#646464; stroke:none;" d="M79 50L80 51L79 50M103 50L104 51L103 50z"/>
<path style="fill:#d29f86; stroke:none;" d="M104 50L105 51L104 50M115 50L116 51L115 50z"/>
<path style="fill:#646464; stroke:none;" d="M152 50L153 51L152 50z"/>
<path style="fill:#d29f86; stroke:none;" d="M196 50L197 51L196 50z"/>
<path style="fill:#646464; stroke:none;" d="M221 50L222 51L221 50z"/>
<path style="fill:#d29f86; stroke:none;" d="M80 51L81 52L80 51z"/>
<path style="fill:#646464; stroke:none;" d="M81 51L82 52L81 51z"/>
<path style="fill:#d29f86; stroke:none;" d="M102 51L103 52L102 51z"/>
<path style="fill:#646464; stroke:none;" d="M115 51L116 52L115 51M125 51L126 52L125 51z"/>
<path style="fill:#d29f86; stroke:none;" d="M152 51L153 52L152 51M163 51L164 52L163 51z"/>
<path style="fill:#646464; stroke:none;" d="M171 51L172 52L171 51z"/>
<path style="fill:#d29f86; stroke:none;" d="M198 51L199 52L198 51z"/>
<path style="fill:#646464; stroke:none;" d="M199 51L200 52L199 51M219 51L220 52L219 51z"/>
<path style="fill:#d29f86; stroke:none;" d="M220 51L221 52L220 51M83 52L84 53L83 52z"/>
<path style="fill:#646464; stroke:none;" d="M84 52L85 53L84 52M99 52L100 53L99 52z"/>
<path style="fill:#d29f86; stroke:none;" d="M100 52L101 53L100 52M114 52L115 53L114 52M125 52L126 53L125 52z"/>
<path style="fill:#646464; stroke:none;" d="M163 52L164 53L163 52z"/>
<path style="fill:#d29f86; stroke:none;" d="M171 52L172 53L171 52z"/>
<path style="fill:#646464; stroke:none;" d="M181 52L182 53L181 52z"/>
<path style="fill:#d29f86; stroke:none;" d="M201 52L202 53L201 52z"/>
<path style="fill:#646464; stroke:none;" d="M202 52L203 53L202 52M217 52L218 53L217 52z"/>
<path style="fill:#d29f86; stroke:none;" d="M87.6667 53.3333L88.3333 53.6667L87.6667 53.3333z"/>
<path style="fill:#646464; stroke:none;" d="M89 53L89 54L95 54L89 53z"/>
<path style="fill:#d29f86; stroke:none;" d="M95.6667 53.3333L96.3333 53.6667L95.6667 53.3333M205.667 53.3333L206.333 53.6667L205.667 53.3333z"/>
<path style="fill:#646464; stroke:none;" d="M207 53L207 54L213 54L207 53z"/>
<path style="fill:#d29f86; stroke:none;" d="M213.667 53.3333L214.333 53.6667L213.667 53.3333M68 57L69 58L68 57M11.6667 58.3333L12.3333 58.6667L11.6667 58.3333M67 58L68 59L67 58z"/>

</svg>
